<?xml version="1.0" standalone="no"?>
<!DOCTYPE svg PUBLIC "-//W3C//DTD SVG 20010904//EN"
 "http://www.w3.org/TR/2001/REC-SVG-20010904/DTD/svg10.dtd">
<svg version="1.0" xmlns="http://www.w3.org/2000/svg"
 width="16.000000pt" height="16.000000pt" viewBox="0 0 16.000000 16.000000"
 preserveAspectRatio="xMidYMid meet">
<metadata>
Created by potrace 1.11, written by Peter Selinger 2001-2013
</metadata>
<g transform="translate(0.000000,16.000000) scale(0.003125,-0.003125)"
fill="#000000" stroke="none">
<path d="M2539 4926 c-13 -7 -47 -26 -75 -43 -27 -17 -70 -41 -95 -55 -24 -14
-60 -34 -79 -45 -365 -210 -570 -329 -590 -341 -14 -9 -38 -24 -55 -32 -16 -9
-86 -50 -155 -90 -69 -40 -145 -84 -170 -98 -25 -14 -182 -105 -350 -202 -168
-97 -334 -193 -370 -213 -36 -21 -73 -43 -82 -51 -17 -12 -18 -81 -18 -1199
l0 -1185 138 -80 c75 -44 153 -89 172 -99 19 -11 193 -111 385 -223 193 -111
366 -211 385 -222 70 -40 697 -403 778 -450 45 -26 85 -48 87 -48 3 0 29 -16
59 -35 l54 -34 123 70 c68 39 129 74 134 79 6 4 42 24 80 45 39 20 77 44 86
51 8 8 18 14 22 14 3 0 86 46 184 103 98 57 275 159 393 227 118 68 235 135
260 150 73 43 548 318 670 387 19 11 52 30 73 43 l37 22 -2 1190 -3 1190 -37
22 c-20 11 -83 48 -140 80 -261 150 -581 335 -678 392 -130 76 -422 244 -425
244 -2 0 -51 29 -110 65 -59 36 -109 65 -111 65 -4 0 -491 280 -530 305 -17
11 -26 11 -45 1z"/>
</g>
</svg>
